<?xml version="1.0" encoding="UTF-8"?>
<svg id="Capa_1" data-name="Capa 1" xmlns="http://www.w3.org/2000/svg" viewBox="0 0 1920 1080">
  <defs>
    <style>
      .cls-1 {
        fill: #8f81ba;
      }
    </style>
  </defs>
  <path class="cls-1" d="m1250.18,691.29c-6.61.72-21.86,95.43-30.81,117.57-.86,2.12-2.72,5.7-6.44,8.05-7.04,4.44-17.04,2.39-23.86-4.29-9.62-7.27-4.93-21.27-3.6-31.24,10.1-52.49,26.57-104.75,49.03-153.11,5.49-10.84,22.73-8.59,25.24,3.33,2.05,8.12,3.67,16.37,4.94,24.64,6.74,40.49,11.07,82.96,31.28,119.46,7.44,13.44,15.22,19.61,24.12,21.73,14.11,3.36,27.26-5.73,32.56-9.4,53.82-37.23,57.33-163.02,31.3-185.61-5.67-4.92-10.88-6-10.88-6-16.75-3.46-27.54,17.59-39.06,13.86-8.42-2.73-12.24-17.11-10.97-27.68,2.01-16.71,16.82-24.65,18.18-25.35.51-.26,12.22-7.83,25.29-7.45,27.42.8,46.54,35.98,51.2,44.55,43.54,80.13-14.49,229.04-82.66,241.08-4.79.85-12.3,2.17-21.21-.56-52.8-16.18-55.9-144.45-63.67-143.6Z"/>
  <path class="cls-1" d="m844.5,488.69c-4.67,8.67-8.44,17.95-18.4,21-4.94,1.9-11.21-4.18-9.79-9.48,1.35-5.07,4.84-7.82,10.49-17.44,3.04-5.17,4.67-9.82,5.53-12.73-6.14-12.43-14.76-32.29-20.48-57.81-19.91-88.75,10.86-175.56,43.08-191.36,3.68-1.81,14.25-6.99,25.13-3.43,10.7,3.5,15.99,13.75,18.58,18.26,17.61,30.67,7.66,77.16,3.36,95.88-7.63,33.17-20.26,77.87-42.09,129.73-.08,3.37,4.98,7.96,10.92,11.79,2.33,1.5,8.12,5.6,16.15,7.23,16.13,3.27,21.73-6.8,34.68-3.15,6.56,1.85,13.71,6.85,16.45,14.18,4.03,10.77-2.42,23.93-10.88,30.31-18.93,14.28-50.24-3.6-54.81-6.21-14.84-8.47-23.54-19.98-27.9-26.76Zm3.93-40.23c14.79-37.2,40.43-107.83,40.42-157.99,0-12.35,0-41.89-12.13-46.02-3.57-1.22-7.05.16-8.57.79-22.53,9.28-35.73,68.98-33.5,124.5.78,19.46,3.79,46.7,13.79,78.71Z"/>
  <path class="cls-1" d="m754.33,439.33c-15.48,34.93-61.11,78.17-95.49,39.58-5.7,9.97-18.26,24.15-28.39,21.25-3.72-1.06-7.88-4.9-9.13-9.7-1.44-5.55,1.53-10.66,2.96-13.15,3.05-5.32,6.61-11.85,10.72-19.54,7.18-13.46,12.01-28.03,14.67-43.05,2.57-14.52,7.04-25.62,10.56-32.94,5.55-11.5,21.33-44.23,49.4-49.09,3.93-.68,13.21-2.15,22.85,2.72,11.32,5.72,15.76,16.48,16.98,19.77,4.5-13.51-3.23-35.33,12.15-42.41,8.67-3.33,17.85,2.29,18.64,11.54-.74,32.76-2.07,65.58.76,98.31,1.86,16.09,3.41,32.96,12.01,47.14,8.83,14.94-12.85,29.7-23.06,15.21-10.12-13.54-12.22-29.21-15.62-45.66Zm-80.05-5.44c.22,5.95,1,27.64,11.08,31.03,15.49,5.21,51.92-33.13,50.97-73.46-.05-1.98-.98-31.32-13.38-34.74-16.28-4.5-50.16,36.29-48.68,77.18Z"/>
  <path class="cls-1" d="m1517.39,459.58c-18.58,8.88-46.36,31.91-65.78,15.08-5.3-4.92-11.99-9.28-11.89-17.41.57-33.84,58.86-74.28,80.01-100.94-18.48-.1-35.84,5.64-53.84,8.78-10.47,1.91-15.14-3.2-17.71-12.42-8-31.31,36.31-56.03,57.25-72.7,20.84-14.32,44.92,4.96,21.37,23.69-12.39,12.09-26.65,20.78-36.9,35.16,19.41-1.59,59.19-20.59,57.93,13.08,6.21,16.92-17.15,33.74-25.69,46.78-14.66,17.7-29.41,35.33-44.11,53-2.37,2.54-4.12,5.33-4.2,8.92,14.67-.77,27.45-11.68,41.05-16.86,7.34-3.22,14.63-3.11,20.45.02,7.25,3.91,9.94,11.86,10.57,13.76,9.31,28.13-43.09,73.09-73.66,88.23,0,0-20.39,10.1-35.26,4.79-2.53-.91-3.45-1.9-3.66-2.87-.99-4.5,12.72-10.84,15.71-13.51,30.57-16.15,55.11-42.67,68.36-74.58Z"/>
  <path class="cls-1" d="m1046.8,698.31c-1.02-9.54-1.59-26.35,5.09-45.22,2.03-5.73,19.31-52.49,58.2-58.24,3.31-.49,29.25-3.94,43.68,13.09,10.96,12.94,8.94,30.2,8.39,34.96-5.49,47.02-76.42,70.16-79.76,71.2.51,6.2,2.32,10.89,3.68,13.74,5.41,11.3,14.73,16.51,17.6,17.98,3.41,1.74,6.19,3.16,9.62,3.41,16.15,1.18,35.76-24.37,45.27-46.53,3.99-9.29,7.81-21.74,15.3-22.42,2.15-.2,4,.63,5.23,1.36,0,0,4.8,2.49,6.94,10.41,3.33,12.31-6.91,78.55-53.62,87.87-21.5,4.29-39.45-5.71-44.73-8.7-28.46-16.1-36.47-45.99-38.1-52.74-3.89.15-9.48.06-16.04-1.12-10.32-1.85-19.12-3.43-24.97-10.71-4.78-5.96-7.92-16.13-3.62-23.62.06-.1.12-.2.18-.3,2.63-4.33,7.83-6.62,12.73-5.33.56.15,1.13.34,1.68.59,6.4,2.85,6.28,10.17,12.54,15.46,2.68,2.26,7.1,4.65,14.7,4.86Zm31.7-2.57c9.61-2.54,45.72-13.07,59.83-40.41,2.84-5.51,8-15.5,4.39-26.05-.38-1.11-3.99-11.16-13.19-14.1-9.49-3.03-18.77,3.49-23.57,6.86-26.04,18.3-27.33,64.13-27.45,73.7Z"/>
  <path class="cls-1" d="m846.4,714.3c-16.67,3.9-37.46,11.2-58.14,25.45-4.78,3.3-9.16,6.69-13.15,10.08-4.01,21.99-6.56,37.23-6.83,42.26-.04.82-.13,3.55-1.7,6.47-.99,1.85-2.4,3.49-4.23,4.85-3.19,1.37-5.35,1.19-6.84.61-7.28-2.88-8.89-19.89-4.82-42.61-1.39,1.32-3.48,3.17-6.24,5.11-4.37,3.08-6.67,4.66-9.66,4.38-2.39-.22-5.38-1.6-5.96-3.92-.34-1.35-.09-2.89.93-4.36,6.25-9.34,16.14-15.02,24.92-21.65,15.47-62.42,36.31-107.42,53.11-123.58,6.4-6.16,18.65-17.95,34.61-17.03,0,0,4.67.27,9.24,1.98,24.48,9.15,31.04,72.77,31.34,75.94,14.75-5.87,27-6.13,31.13-.42,1.42,1.96,1.49,4.09,1.5,4.75.24,13.19-30.89,23.34-32.64,23.9-.05,12.95-.95,76.37-25.53,88.04-2.87,1.36-14.37,6.83-19.75,2.25-3.17-2.7-3.25-7.84-2.78-10.5,4.2-23.94,9.94-47.69,11.47-71.98Zm-65.62,9.67c17.46-12.21,37.49-23.62,60.31-32.9,2.54-1.03,5.07-2.02,7.59-2.97.26-26.88-1.64-57.41-12.61-60.16-4.29-1.08-10.23,1.57-17.04,10.84-18.72,25.49-32,54.14-38.25,85.18Z"/>
  <path class="cls-1" d="m936.32,446.09c-13.18,8.31-27.42,9.52-35.21,3.34-5.14-4.08-6.97-10.06-6.97-10.06-7.37-24.1,22.33-20,37.55-20.18-2.18-56.92,11.18-103,36.69-116.28,5.42-2.82,18.09-9.42,31.79-5.04,13.88,4.43,20.22,17.39,21.46,19.91,8.06,16.46,2.66,33.58-1.48,46.08-10.88,32.8-34.34,53.69-48.85,64.35.24,2.54.85,6.12,2.46,10.11,1.38,3.41,6.47,15.98,17.74,18.45,7.37,1.62,15.23-1.56,20.01-5.94,7.3-6.69,5.6-14.52,13.5-18.36,4.33-2.11,8.52-1.54,9.68-1.37.93.14,8.33,1.35,11.52,7.31,1.66,3.11,1.74,6.71.59,11.47-5.46,22.58-22.11,33.01-22.11,33.01-20.21,12.66-45.87,6.04-61.36-3.58-17.19-10.68-24.46-26.67-27-33.22Zm31.41-38.11c.33.09.66.19.99.28,97.74-86.92-13.41-124.74-.99-.28Z"/>
  <path class="cls-1" d="m1392.41,384.38c-3.65-16.18-9.32-28.57-13.04-35.78-11.84-12.93,4.62-35.1,18.81-24.69,19.97,15.47,27.65,41.33,29.85,65.5,4.08,44.84-9.83,95.17-44.01,122.35-7.31,5.81-19.46,15.19-36.24,14.9-21.81-.38-35.98-16.83-37.2-18.29-30.01-35.97,9.1-99.89,19.68-103.68,4.7-1.68,9.28-1.3,9.28-1.3,2.95.42,6.85,1.51,9.4,4.62,5.49,6.69.05,17.05-6.12,39.44-1.75,6.34-8.62,32.04-3.29,50,.83,2.79,2.32,6.65,5.91,9.06,5.77,3.87,13.42,1.64,15.74.97,19.99-5.82,44.4-64.6,31.21-123.1Z"/>
  <path class="cls-1" d="m962.67,768.51c8.68,4.4,16.1.14,52.25-6.84,31.5-6.08,38.53-5.48,42.54-1.1,7.02,7.67,9.65,22.58,1.54,30.04-8.11,7.45-76.74,30.04-99.98,17.32-1.93-1.06-10.79-5.91-18.29-14.02-42.43-45.86-9.07-160.11-4.87-174.05,9.07-31.49,17.81-54.17,22.32-57.47,4.61-3.37,7.67-2.38,7.67-2.38,1.01.33,1.83.98,2.12,1.21,2.2,1.76,2.92,4.34,3.09,4.98.77,2.91,0,5.31-.31,6.18-36.4,98.05-25.31,154.65-25.31,154.65,1.58,14.36,3.83,34.68,17.25,41.48Z"/>
  <path class="cls-1" d="m461.59,524.63c2.38-6.47,4.91-15.41,5.82-26.28.77-9.22.14-17.2-.8-23.36-9.05-.87-52.29-5.97-78.1-41.53-31.29-43.11-15.57-101.51,10.01-135.57,28.21-37.57,77.54-57.67,121.65-48.65,5.49,1.12,25.89,5.76,46.41,22.13,58.27,46.49,70.82,150.37,31.75,219.08-7.59,13.34-25.88,45.47-64.24,59.58-23.2,8.53-44.39,6.96-56.57,5.02-2.57,4.94-9.69,16.79-23.01,20.88-22.45,6.88-47.21-12.99-54.02-33.67-.65-1.96-6.4-20.33,2.72-29.92,0,0,1.64-1.72,3.87-2.98,14.52-8.18,49.85,12.49,54.52,15.27Zm1.93-69.51c-6.17-27.37-14.13-47.76-20.52-61.72-6.19-13.52-14.96-29.88-8.15-39.47.6-.84,3.25-4.57,7.27-4.91,12.38-1.04,24.45,31.21,32.64,53.1,5.12,13.7,11.44,32.97,16.45,56.99,2.76.41,6.88.7,11.66-.26,6.67-1.34,9.35-4.08,12.56-2.72,3.35,1.42,5.41,6.49,4.66,10.1-1.34,6.45-12.27,11.16-27.52,10.92.42,6.41.52,13.59,0,21.4-.88,13.36-3.31,24.91-6,34.25,6.64.98,16.29,1.48,26.73-1.83,56.97-18.09,90.78-134.89,47.07-199.29-4.34-6.4-20.7-30.5-48.66-35.6-46.82-8.54-109.98,39.12-104.04,92.33,4.85,43.45,52.98,65.46,55.86,66.73Zm-11.2,88.25c-25.29-12.12-31.42-10.77-33.1-8.59-.91,1.18-.76,2.9-.58,4.95.52,5.99,4.7,11.27,9.06,13.41,7.25,3.56,18.29.07,24.63-9.78Z"/>
  <path class="cls-1" d="m1238.16,475.94c15.86-16.96,58.17-65.19,59.53-110.55.28-9.15.87-28.8-10.71-36.05-2.7-1.69-8.23-4.06-19.63-1.43-27.58,6.36-56.3,34.27-71.65,69.32-7.08,16.16-11.23,31.93-23.51,34.81-4.57,1.07-11.14.54-14.89-3.31-11.1-11.41,5.42-48.92,23.89-73.17,23.16-30.4,71.03-68.4,105.48-52.91,16.16,7.26,23.28,23.56,24.93,27.34,18.21,41.68-11.24,103.75-68.9,159.32,11.77,32.69,20.03,57.25,22.65,66.48.57,2.03,1.79,6.55-.51,9.74-1.66,2.31-4.78,3.56-9.2,3.56-21.67.05-27.75-46.37-35.72-62.64-9.53,5.21-62.25,33.03-97.97,11.11-45.81-28.1-30.6-117.68-7.6-167.05,24.63-52.87,76.81-99.56,97.98-90.25,4.07,1.79,8.83,6.39,9.84,11.98,2.49,13.71-16.3,27.74-23.21,33.22-34.98,27.72-79.83,85.19-81.08,136.14-.15,6.04-1.08,44.07,24.37,59.47,19.32,11.69,48.1,6.89,72.74-11.83-8.75-29.24-14.89-50.86-16.28-56.7-.28-1.19-.85-3.83.49-6.04,1.15-1.89,3.36-3.09,6.36-3.4,4.25-.43,7.94.22,9.85,1.02,6.06,2.54,9.28,9.26,16.69,32.25,1.75,5.43,3.82,12.03,6.06,19.57Z"/>
  <path class="cls-1" d="m665.6,787.68c38.79-61.87-8.09-199.35,44.33-242.99,28.5-23.72,81.73-15.89,94.56-.82,2.13,2.51,10.02,11.77,7.07,18.48-.35.8-1.64,3.38-6.29,5.24-16.8,6.73-57.76-3.85-72.99,1.88-43.67,16.44,21.42,203.65-50.07,266.63-2.99,2.63-30.71,26.39-59.26,19.28-19.53-4.87-30.7-22-35.06-28.9-44.53-70.37,18.86-180.58-8.74-196.88-19.02-11.23-59.34,34.73-82.22,18.83-7.52-5.22-10.28-15.14-9.56-22.33,2.46-24.35,47.8-44.71,84.44-36.22,9.54,2.21,18.01,4.17,25.24,11.47,18.74,18.93,3.79,48.16,1.16,126.15-.84,25.06-.69,53.56,16.82,73.66,3.75,4.31,10.18,11.48,19.15,11.87,15.1.67,27.01-18.32,31.41-25.35Z"/>
</svg>